<svg width="380" height="111" viewBox="0 0 380 111" fill="none" xmlns="http://www.w3.org/2000/svg">
<g clip-path="url(#clip0_287_578)">
<path d="M0 16C0 7.16344 7.16344 0 16 0H364C372.837 0 380 7.16344 380 16V95C380 103.837 372.837 111 364 111H16C7.16344 111 0 103.837 0 95V16Z" fill="#3F708D" fill-opacity="0.8"/>
<path d="M0 16C0 7.16344 7.16344 0 16 0H364C372.837 0 380 7.16344 380 16V95C380 103.837 372.837 111 364 111H16C7.16344 111 0 103.837 0 95V16Z" fill="#17191A" fill-opacity="0.9"/>
<g filter="url(#filter0_f_287_578)">
<circle cx="-0.5" cy="3.5" r="125.5" fill="#2091D7" fill-opacity="0.6"/>
</g>
<g filter="url(#filter1_f_287_578)">
<circle cx="337.5" cy="19.5" r="76.5" fill="url(#paint0_linear_287_578)" fill-opacity="0.6"/>
</g>
<g filter="url(#filter2_f_287_578)">
<path d="M170.989 129.255C191.347 80.8031 238.139 41.8159 326.582 28.9102L227.606 -21.0629L160.429 52.7314L170.989 129.255Z" fill="url(#paint1_linear_287_578)"/>
</g>
</g>
<rect x="0.5" y="0.5" width="379" height="110" rx="23.5" stroke="url(#paint2_linear_287_578)"/>
<defs>
<filter id="filter0_f_287_578" x="-290" y="-286" width="579" height="579" filterUnits="userSpaceOnUse" color-interpolation-filters="sRGB">
<feFlood flood-opacity="0" result="BackgroundImageFix"/>
<feBlend mode="normal" in="SourceGraphic" in2="BackgroundImageFix" result="shape"/>
<feGaussianBlur stdDeviation="82" result="effect1_foregroundBlur_287_578"/>
</filter>
<filter id="filter1_f_287_578" x="161.032" y="-156.968" width="352.936" height="352.936" filterUnits="userSpaceOnUse" color-interpolation-filters="sRGB">
<feFlood flood-opacity="0" result="BackgroundImageFix"/>
<feBlend mode="normal" in="SourceGraphic" in2="BackgroundImageFix" result="shape"/>
<feGaussianBlur stdDeviation="49.9841" result="effect1_foregroundBlur_287_578"/>
</filter>
<filter id="filter2_f_287_578" x="61.3554" y="-120.137" width="364.301" height="348.466" filterUnits="userSpaceOnUse" color-interpolation-filters="sRGB">
<feFlood flood-opacity="0" result="BackgroundImageFix"/>
<feBlend mode="normal" in="SourceGraphic" in2="BackgroundImageFix" result="shape"/>
<feGaussianBlur stdDeviation="49.537" result="effect1_foregroundBlur_287_578"/>
</filter>
<linearGradient id="paint0_linear_287_578" x1="337.5" y1="-57" x2="337.5" y2="96" gradientUnits="userSpaceOnUse">
<stop stop-color="#2091D7"/>
<stop offset="1" stop-color="#114C71"/>
</linearGradient>
<linearGradient id="paint1_linear_287_578" x1="200.104" y1="68.8222" x2="320.981" y2="67.4232" gradientUnits="userSpaceOnUse">
<stop stop-color="#6A9CC8"/>
<stop offset="1" stop-color="white" stop-opacity="0"/>
</linearGradient>
<linearGradient id="paint2_linear_287_578" x1="0" y1="56" x2="380" y2="56" gradientUnits="userSpaceOnUse">
<stop stop-color="white" stop-opacity="0.6"/>
<stop offset="0.520327" stop-color="white" stop-opacity="0"/>
<stop offset="1" stop-color="white" stop-opacity="0.6"/>
</linearGradient>
<clipPath id="clip0_287_578">
<rect width="380" height="111" rx="24" fill="white"/>
</clipPath>
</defs>
</svg>
